<?xml version="1.0" encoding="UTF-8" standalone="no"?>
<svg height="16px" viewBox="0 0 16 16" width="16px" xmlns="http://www.w3.org/2000/svg" sodipodi:docname="io.github.diegoivanme.flowtime-symbolic.svg" inkscape:version="1.2.1 (9c6d41e410, 2022-07-14)" xmlns:inkscape="http://www.inkscape.org/namespaces/inkscape" xmlns:sodipodi="http://sodipodi.sourceforge.net/DTD/sodipodi-0.dtd" xmlns:svg="http://www.w3.org/2000/svg">
    <sodipodi:namedview pagecolor="#ffffff" bordercolor="#000000" borderopacity="0.25" inkscape:showpageshadow="2" inkscape:pageopacity="0.0" inkscape:pagecheckerboard="0" inkscape:deskcolor="#d1d1d1" showgrid="false" inkscape:zoom="19.164255" inkscape:cx="10.070832" inkscape:cy="12.210232" inkscape:window-width="1280" inkscape:window-height="731" inkscape:window-x="0" inkscape:window-y="0" inkscape:window-maximized="1" inkscape:current-layer="svg2039">
        <inkscape:grid/>
    </sodipodi:namedview>
    <g stroke-linejoin="round" stroke-width="2">
        <path d="m 13.656848 2.34314 a 8 8 0 0 1 0 11.31372 l -4.9497495 -4.94975 l 0.0415 -0.0413 l 3.4940995 -3.49409 c 0.39172 -0.39174 0.39173 -1.02246 -0.00003 -1.41424 c -0.3917 -0.39172 -1.02248 -0.39174 -1.41419 0.00001 l -2.8284295 2.82841 l -1.41423 -1.41419 c -0.39173 -0.39176 -1.00363 -0.41058 -1.37279 -0.0414 l -0.0414 0.0412 l -2.82842 -2.82846 a 8 8 0 0 1 11.3137195 0.00003 z" paint-order="stroke fill markers"/>
        <path d="m 7.2928785 7.29289 l 1.41422 1.41422 c -0.39172 0.39172 -1.0225 0.39175 -1.41421 0 c -0.39174 -0.39173 -0.39176 -1.0225 -0.00001 -1.41422 z" fill="#f6f5f4" paint-order="stroke fill markers"/>
        <path d="m 5.1715785 5.17158 l 3.53552 3.53553 l -0.0413 0.0412 c -0.36915 0.36915 -0.98105 0.35035 -1.3728 -0.0414 l -2.12128 -2.12135 c -0.39176 -0.39173 -0.41061 -1.00365 -0.0414 -1.37276 z" paint-order="stroke fill markers"/>
        <path d="m 13.656848 2.34314 a 8 8 0 0 1 0 11.31372 a 8 8 0 0 1 -11.3137195 0 a 8 8 0 0 1 0 -11.31372 a 8 8 0 0 1 11.3137195 0 z m -1.41423 1.41424 a 6 6 0 0 0 -8.4852495 -0.00001 a 6 6 0 0 0 -0.00001 8.48525 a 6 6 0 0 0 8.4852495 0.00001 a 6 6 0 0 0 0.00001 -8.48525 z" paint-order="stroke fill markers"/>
    </g>
</svg>
