<?xml version="1.0" encoding="UTF-8"?>
<svg height="16px" viewBox="0 0 16 16" width="16px" xmlns="http://www.w3.org/2000/svg">
    <path d="m 5 0 c -1.089844 0 -2 0.910156 -2 2 v 3 c 0 0.265625 0.105469 0.519531 0.292969 0.707031 l 2.292969 2.292969 l -2.292969 2.292969 c -0.1875 0.1875 -0.292969 0.441406 -0.292969 0.707031 v 3 c 0 1.089844 0.910156 2 2 2 h 6 c 1.089844 0 2 -0.910156 2 -2 v -3 c 0 -0.265625 -0.105469 -0.519531 -0.292969 -0.707031 l -2.292969 -2.292969 l 2.292969 -2.292969 c 0.1875 -0.1875 0.292969 -0.441406 0.292969 -0.707031 v -3 c 0 -1.089844 -0.910156 -2 -2 -2 z m 0 2 h 6 v 2 h -6 z m 2.414062 7 h 1.171876 l 2.414062 2.414062 v 1.585938 h -6 v -1.585938 z m 0 0" fill="#241f31"/>
</svg>
