<?xml version="1.0" encoding="UTF-8"?>
<svg height="128px" viewBox="0 0 128 128" width="128px" xmlns="http://www.w3.org/2000/svg" xmlns:xlink="http://www.w3.org/1999/xlink">
    <radialGradient id="a" cx="64" cy="238.999817" gradientTransform="matrix(1 0 0 0.993134 0 -170.359014)" gradientUnits="userSpaceOnUse" r="2.847873">
        <stop offset="0" stop-color="#949390"/>
        <stop offset="1" stop-color="#68676b"/>
    </radialGradient>
    <path d="m 123.4375 67 c 0 32.828125 -26.609375 59.4375 -59.4375 59.4375 s -59.4375 -26.609375 -59.4375 -59.4375 s 26.609375 -59.4375 59.4375 -59.4375 s 59.4375 26.609375 59.4375 59.4375 z m 0 0" fill="#77767b"/>
    <path d="m 123.4375 64 c 0 32.828125 -26.609375 59.4375 -59.4375 59.4375 s -59.4375 -26.609375 -59.4375 -59.4375 s 26.609375 -59.4375 59.4375 -59.4375 s 59.4375 26.609375 59.4375 59.4375 z m 0 0" fill="#ffffff"/>
    <path d="m 117 64 c 0 29.269531 -23.730469 53 -53 53 s -53 -23.730469 -53 -53 s 23.730469 -53 53 -53 s 53 23.730469 53 53 z m 0 0" fill="#3d3846"/>
    <path d="m 59.472656 29.617188 c 0.59375 -0.023438 1.101563 0.171874 1.128906 0.433593 l 3.929688 36.847657 c 0.027344 0.261718 -0.433594 0.488281 -1.027344 0.511718 c -0.597656 0.019532 -1.105468 -0.175781 -1.132812 -0.433594 l -3.929688 -36.847656 c -0.027344 -0.261718 0.433594 -0.492187 1.03125 -0.511718 z m 0 0" fill="#26a269"/>
    <path d="m 64 67 c 0.351562 0.203125 0.507812 0.535156 0.355469 0.742188 l -21.742188 29.199218 c -0.15625 0.207032 -0.5625 0.210938 -0.914062 0.007813 c -0.351563 -0.207031 -0.507813 -0.539063 -0.355469 -0.746094 l 21.742188 -29.199219 c 0.15625 -0.207031 0.5625 -0.207031 0.914062 -0.003906 z m 0 0" fill="#57e389"/>
    <path d="m 67.695312 67 c 0 2.039062 -1.65625 3.695312 -3.695312 3.695312 s -3.695312 -1.65625 -3.695312 -3.695312 s 1.65625 -3.695312 3.695312 -3.695312 s 3.695312 1.65625 3.695312 3.695312 z m 0 0" fill="#ffffff"/>
    <path d="m 66.546875 67 c 0 1.398438 -1.140625 2.527344 -2.546875 2.527344 s -2.546875 -1.128906 -2.546875 -2.527344 s 1.140625 -2.527344 2.546875 -2.527344 s 2.546875 1.128906 2.546875 2.527344 z m 0 0" fill="url(#a)"/>
</svg>
