<?xml version="1.0" encoding="UTF-8"?>
<svg height="128px" viewBox="0 0 128 128" width="128px" xmlns="http://www.w3.org/2000/svg" xmlns:xlink="http://www.w3.org/1999/xlink">
    <linearGradient id="a" gradientUnits="userSpaceOnUse">
        <stop offset="0" stop-color="#cc5600"/>
        <stop offset="0.151367" stop-color="#e56c00"/>
        <stop offset="1" stop-color="#cc5600"/>
    </linearGradient>
    <linearGradient id="b" x1="6" x2="58" xlink:href="#a" y1="15" y2="15"/>
    <clipPath id="c">
        <path d="m 8 20 h 48 v 94 h -48 z m 0 0"/>
    </clipPath>
    <clipPath id="d">
        <path d="m 32 12 c -13.253906 0 -24 5.371094 -24 12 c 0 7.683594 3.050781 15.050781 8.484375 20.484375 l 4.6875 4.6875 c 1.8125 1.8125 2.828125 4.265625 2.828125 6.828125 s -1.015625 5.015625 -2.828125 6.828125 l -4.6875 4.6875 c -5.433594 5.433594 -8.484375 12.800781 -8.484375 20.484375 v 26 h 48 v -26 c 0 -7.683594 -3.050781 -15.050781 -8.484375 -20.484375 l -4.6875 -4.6875 c -1.8125 -1.8125 -2.828125 -4.265625 -2.828125 -6.828125 s 1.015625 -5.015625 2.828125 -6.828125 l 4.6875 -4.6875 c 5.433594 -5.433594 8.484375 -12.800781 8.484375 -20.484375 c 0 -6.628906 -10.746094 -12 -24 -12 z m 0 0"/>
    </clipPath>
    <linearGradient id="e" gradientUnits="userSpaceOnUse" x1="8" x2="56" y1="63" y2="63">
        <stop offset="0" stop-color="#ffffff" stop-opacity="0"/>
        <stop offset="0.203432" stop-color="#ffffff" stop-opacity="0.482353"/>
        <stop offset="1" stop-color="#ffffff" stop-opacity="0"/>
    </linearGradient>
    <linearGradient id="f" gradientTransform="matrix(1 0 0 1.076923 0.020052 -186.769231)" gradientUnits="userSpaceOnUse" x1="18.261774" x2="18.261774" y1="192" y2="218">
        <stop offset="0" stop-color="#ffffff" stop-opacity="0.537255"/>
        <stop offset="1" stop-color="#ffffff" stop-opacity="0"/>
    </linearGradient>
    <linearGradient id="g" gradientUnits="userSpaceOnUse">
        <stop offset="0" stop-color="#ffffff" stop-opacity="0.498039"/>
        <stop offset="1" stop-color="#ffffff" stop-opacity="0"/>
    </linearGradient>
    <linearGradient id="h" x1="20.467259" x2="20.467259" xlink:href="#g" y1="84" y2="60.000183"/>
    <linearGradient id="i" gradientUnits="userSpaceOnUse">
        <stop offset="0" stop-color="#ffffff" stop-opacity="0.352941"/>
        <stop offset="1" stop-color="#ffffff" stop-opacity="0"/>
    </linearGradient>
    <linearGradient id="j" gradientTransform="matrix(-0.843082 0 -0.164943 1.076923 96.237442 -186.769231)" x1="18.261772" x2="18.261772" xlink:href="#i" y1="218" y2="192"/>
    <linearGradient id="k" x1="6" x2="58" xlink:href="#a" y1="105" y2="105"/>
    <linearGradient id="l" gradientUnits="userSpaceOnUse">
        <stop offset="0" stop-color="#14539e"/>
        <stop offset="0.151367" stop-color="#1b6aca"/>
        <stop offset="1" stop-color="#14539e"/>
    </linearGradient>
    <linearGradient id="m" x1="70" x2="122" xlink:href="#l" y1="15" y2="15"/>
    <clipPath id="n">
        <path d="m 72 38 h 48 v 76 h -48 z m 0 0"/>
    </clipPath>
    <clipPath id="o">
        <path d="m 96 12 c 13.253906 0 24 5.371094 24 12 c 0 7.683594 -3.050781 15.050781 -8.484375 20.484375 l -4.6875 4.6875 c -1.8125 1.8125 -2.828125 4.265625 -2.828125 6.828125 s 1.015625 5.015625 2.828125 6.828125 l 4.6875 4.6875 c 5.433594 5.433594 8.484375 12.800781 8.484375 20.484375 v 26 h -48 v -26 c 0 -7.683594 3.050781 -15.050781 8.484375 -20.484375 l 4.6875 -4.6875 c 1.8125 -1.8125 2.828125 -4.265625 2.828125 -6.828125 s -1.015625 -5.015625 -2.828125 -6.828125 l -4.6875 -4.6875 c -5.433594 -5.433594 -8.484375 -12.800781 -8.484375 -20.484375 c 0 -6.628906 10.746094 -12 24 -12 z m 0 0"/>
    </clipPath>
    <linearGradient id="p" gradientUnits="userSpaceOnUse" x1="72" x2="120" y1="63" y2="63">
        <stop offset="0" stop-color="#ffffff" stop-opacity="0.121569"/>
        <stop offset="0.157155" stop-color="#ffffff" stop-opacity="0.631373"/>
        <stop offset="1" stop-color="#ffffff" stop-opacity="0"/>
    </linearGradient>
    <linearGradient id="q" gradientTransform="matrix(1 0 0 1.076923 64.020052 -186.769231)" gradientUnits="userSpaceOnUse" x1="18.261774" x2="18.261774" y1="192" y2="218">
        <stop offset="0" stop-color="#ffffff" stop-opacity="0.666667"/>
        <stop offset="1" stop-color="#ffffff" stop-opacity="0"/>
    </linearGradient>
    <linearGradient id="r" x1="84.467259" x2="84.467259" xlink:href="#g" y1="84" y2="60.000183"/>
    <linearGradient id="s" gradientTransform="matrix(-0.843082 0 -0.164943 1.076923 160.237442 -186.769231)" x1="18.261772" x2="18.261772" xlink:href="#i" y1="218" y2="192"/>
    <linearGradient id="t" x1="70" x2="122" xlink:href="#l" y1="105" y2="105"/>
    <clipPath id="u">
        <path d="m 8 20 h 48 v 94 h -48 z m 0 0"/>
    </clipPath>
    <clipPath id="v">
        <path d="m 32 12 c -13.253906 0 -24 5.371094 -24 12 c 0 7.683594 3.050781 15.050781 8.484375 20.484375 l 4.6875 4.6875 c 1.8125 1.8125 2.828125 4.265625 2.828125 6.828125 s -1.015625 5.015625 -2.828125 6.828125 l -4.6875 4.6875 c -5.433594 5.433594 -8.484375 12.800781 -8.484375 20.484375 v 26 h 48 v -26 c 0 -7.683594 -3.050781 -15.050781 -8.484375 -20.484375 l -4.6875 -4.6875 c -1.8125 -1.8125 -2.828125 -4.265625 -2.828125 -6.828125 s 1.015625 -5.015625 2.828125 -6.828125 l 4.6875 -4.6875 c 5.433594 -5.433594 8.484375 -12.800781 8.484375 -20.484375 c 0 -6.628906 -10.746094 -12 -24 -12 z m 0 0"/>
    </clipPath>
    <clipPath id="w">
        <path d="m 72 38 h 48 v 76 h -48 z m 0 0"/>
    </clipPath>
    <clipPath id="x">
        <path d="m 96 12 c 13.253906 0 24 5.371094 24 12 c 0 7.683594 -3.050781 15.050781 -8.484375 20.484375 l -4.6875 4.6875 c -1.8125 1.8125 -2.828125 4.265625 -2.828125 6.828125 s 1.015625 5.015625 2.828125 6.828125 l 4.6875 4.6875 c 5.433594 5.433594 8.484375 12.800781 8.484375 20.484375 v 26 h -48 v -26 c 0 -7.683594 3.050781 -15.050781 8.484375 -20.484375 l 4.6875 -4.6875 c 1.8125 -1.8125 2.828125 -4.265625 2.828125 -6.828125 s -1.015625 -5.015625 -2.828125 -6.828125 l -4.6875 -4.6875 c -5.433594 -5.433594 -8.484375 -12.800781 -8.484375 -20.484375 c 0 -6.628906 10.746094 -12 24 -12 z m 0 0"/>
    </clipPath>
    <clipPath id="y">
        <rect height="128" width="128"/>
    </clipPath>
    <clipPath id="z">
        <rect height="128" width="128"/>
    </clipPath>
    <filter id="A" height="100%" width="100%" x="0%" y="0%">
        <feColorMatrix in="SourceGraphic" type="matrix" values="0 0 0 0 1 0 0 0 0 1 0 0 0 0 1 0 0 0 1 0"/>
    </filter>
    <mask id="B">
        <g clip-path="url(#z)" filter="url(#A)">
            <g clip-path="url(#y)">
                <path d="m 32 2 c -14.359375 0 -26 5.820312 -26 13 v 8 h 5.523438 c 4.921874 3.152344 12.476562 4.996094 20.476562 5 c 8 -0.003906 15.554688 -1.847656 20.476562 -5 h 5.523438 v -8 c 0 -7.179688 -11.640625 -13 -26 -13 z m 0 0" fill="url(#b)"/>
                <path d="m 58 23 c 0 7.179688 -11.640625 13 -26 13 s -26 -5.820312 -26 -13 s 11.640625 -13 26 -13 s 26 5.820312 26 13 z m 0 0" fill="#993600"/>
                <path d="m 32 12 c -13.253906 0 -24 5.371094 -24 12 c 0 7.683594 3.050781 15.050781 8.484375 20.484375 l 4.6875 4.6875 c 1.8125 1.8125 2.828125 4.265625 2.828125 6.828125 s -1.015625 5.015625 -2.828125 6.828125 l -4.6875 4.6875 c -5.433594 5.433594 -8.484375 12.800781 -8.484375 20.484375 v 26 h 48 v -26 c 0 -7.683594 -3.050781 -15.050781 -8.484375 -20.484375 l -4.6875 -4.6875 c -1.8125 -1.8125 -2.828125 -4.265625 -2.828125 -6.828125 s 1.015625 -5.015625 2.828125 -6.828125 l 4.6875 -4.6875 c 5.433594 -5.433594 8.484375 -12.800781 8.484375 -20.484375 c 0 -6.628906 -10.746094 -12 -24 -12 z m 0 0" fill="#c0bfbc"/>
                <g clip-path="url(#u)">
                    <g clip-path="url(#v)">
                        <path d="m 32 20 c -13.253906 0 -24 5.371094 -24 12 v 16 h 12 c 6.402344 6.402344 10 15.085938 10 24.144531 v 8.839844 c -2.035156 0.292969 -4.023438 1.03125 -5.808594 2.222656 l -16.191406 10.792969 v 20 h 48 v -20 l -16.191406 -10.792969 c -1.785156 -1.191406 -3.773438 -1.929687 -5.808594 -2.222656 v -8.839844 c 0 -9.058593 3.597656 -17.742187 10 -24.144531 h 12 v -16 c 0 -6.628906 -10.746094 -12 -24 -12 z m 0 0" fill="#ff7800"/>
                    </g>
                </g>
                <path d="m 18 31 c 0 0.550781 -0.449219 1 -1 1 s -1 -0.449219 -1 -1 s 0.449219 -1 1 -1 s 1 0.449219 1 1 z m 0 0" fill-opacity="0.2"/>
                <path d="m 26 35 c 0 0.550781 -0.449219 1 -1 1 s -1 -0.449219 -1 -1 s 0.449219 -1 1 -1 s 1 0.449219 1 1 z m 0 0" fill-opacity="0.2"/>
                <path d="m 37 31 c 0 0.550781 -0.449219 1 -1 1 s -1 -0.449219 -1 -1 s 0.449219 -1 1 -1 s 1 0.449219 1 1 z m 0 0" fill-opacity="0.2"/>
                <path d="m 28 26 c 0 0.550781 -0.449219 1 -1 1 s -1 -0.449219 -1 -1 s 0.449219 -1 1 -1 s 1 0.449219 1 1 z m 0 0" fill-opacity="0.2"/>
                <path d="m 40 41 c 0 0.550781 -0.449219 1 -1 1 s -1 -0.449219 -1 -1 s 0.449219 -1 1 -1 s 1 0.449219 1 1 z m 0 0" fill-opacity="0.2"/>
                <path d="m 47 31 c 0 0.550781 -0.449219 1 -1 1 s -1 -0.449219 -1 -1 s 0.449219 -1 1 -1 s 1 0.449219 1 1 z m 0 0" fill-opacity="0.2"/>
                <path d="m 42 25 c 0 0.550781 -0.449219 1 -1 1 s -1 -0.449219 -1 -1 s 0.449219 -1 1 -1 s 1 0.449219 1 1 z m 0 0" fill-opacity="0.2"/>
                <path d="m 29 48 c 0 0.550781 -0.449219 1 -1 1 s -1 -0.449219 -1 -1 s 0.449219 -1 1 -1 s 1 0.449219 1 1 z m 0 0" fill-opacity="0.2"/>
                <path d="m 38 53 c 0 0.550781 -0.449219 1 -1 1 s -1 -0.449219 -1 -1 s 0.449219 -1 1 -1 s 1 0.449219 1 1 z m 0 0" fill-opacity="0.2"/>
                <path d="m 29 84 c 0 0.550781 -0.449219 1 -1 1 s -1 -0.449219 -1 -1 s 0.449219 -1 1 -1 s 1 0.449219 1 1 z m 0 0" fill-opacity="0.2"/>
                <path d="m 40 90 c 0 0.550781 -0.449219 1 -1 1 s -1 -0.449219 -1 -1 s 0.449219 -1 1 -1 s 1 0.449219 1 1 z m 0 0" fill-opacity="0.2"/>
                <path d="m 26 89 c 0 0.550781 -0.449219 1 -1 1 s -1 -0.449219 -1 -1 s 0.449219 -1 1 -1 s 1 0.449219 1 1 z m 0 0" fill-opacity="0.2"/>
                <path d="m 52 93 c 0 0.550781 -0.449219 1 -1 1 s -1 -0.449219 -1 -1 s 0.449219 -1 1 -1 s 1 0.449219 1 1 z m 0 0" fill-opacity="0.2"/>
                <path d="m 14 93 c 0 0.550781 -0.449219 1 -1 1 s -1 -0.449219 -1 -1 s 0.449219 -1 1 -1 s 1 0.449219 1 1 z m 0 0" fill-opacity="0.2"/>
                <path d="m 32 12 c -13.253906 0 -24 5.371094 -24 12 c 0 7.683594 3.050781 15.050781 8.484375 20.484375 l 4.6875 4.6875 c 1.8125 1.8125 2.828125 4.265625 2.828125 6.828125 s -1.015625 5.015625 -2.828125 6.828125 l -4.6875 4.6875 c -5.433594 5.433594 -8.484375 12.800781 -8.484375 20.484375 v 26 h 48 v -26 c 0 -7.683594 -3.050781 -15.050781 -8.484375 -20.484375 l -4.6875 -4.6875 c -1.8125 -1.8125 -2.828125 -4.265625 -2.828125 -6.828125 s 1.015625 -5.015625 2.828125 -6.828125 l 4.6875 -4.6875 c 5.433594 -5.433594 8.484375 -12.800781 8.484375 -20.484375 c 0 -6.628906 -10.746094 -12 -24 -12 z m 0 0" fill="url(#e)"/>
                <path d="m 10 22.851562 c -0.125 3.816407 1.085938 7.722657 2.226562 11.242188 c 1.96875 4.796875 4.792969 8.382812 7.765626 11.695312 c 1.105468 1.234376 3.371093 2.210938 5.027343 2.210938 s 2.085938 -0.984375 0.957031 -2.195312 c -2.285156 -2.449219 -4.523437 -4.949219 -6.074218 -8.050782 c -2.410156 -4.257812 -3.800782 -9.9375 -3.839844 -14.878906 c -0.011719 -1.589844 -1.140625 -2.875 -2.734375 -2.875 h -0.078125 c -1.589844 0 -3.199219 1.265625 -3.25 2.851562 z m 0 0" fill="url(#f)"/>
                <path d="m 23.539062 62.472656 c -1.441406 1.800782 -3.246093 3.320313 -4.96875 5.042969 c -3.699218 3.714844 -6.304687 8.351563 -7.570312 13.398437 c -0.421875 1.683594 0.808594 3.085938 2.546875 3.085938 c 1.578125 0 3.03125 -1.402344 3.453125 -3.085938 c 1.265625 -5.046874 3.871094 -9.683593 7.570312 -13.398437 c 1.53125 -1.660156 3.496094 -3.265625 4.972657 -5.046875 c 1.039062 -1.246094 0.273437 -2.46875 -1.355469 -2.46875 h -0.101562 c -1.628907 0 -3.53125 1.203125 -4.546876 2.472656 z m 0 0" fill="url(#h)"/>
                <path d="m 55.71875 22.851562 c -0.480469 3.816407 -2.097656 7.722657 -3.597656 11.242188 c -2.394532 4.796875 -5.328125 8.382812 -8.339844 11.695312 c -1.125 1.234376 -3.179688 2.210938 -4.578125 2.210938 s -1.609375 -0.984375 -0.46875 -2.195312 c 2.300781 -2.449219 4.570313 -4.949219 6.355469 -8.050782 c 2.683594 -4.257812 4.726562 -9.9375 5.511718 -14.878906 c 0.253907 -1.589844 1.40625 -2.875 2.746094 -2.875 h 0.066406 c 1.34375 0 2.503907 1.265625 2.304688 2.851562 z m 0 0" fill="url(#j)"/>
                <path d="m 32 92 c -14.359375 0 -26 5.820312 -26 13 v 8 h 5.523438 c 4.921874 3.152344 12.476562 4.996094 20.476562 5 c 8 -0.003906 15.554688 -1.847656 20.476562 -5 h 5.523438 v -8 c 0 -7.179688 -11.640625 -13 -26 -13 z m 0 0" fill="url(#k)"/>
                <path d="m 58 113 c 0 7.179688 -11.640625 13 -26 13 s -26 -5.820312 -26 -13 s 11.640625 -13 26 -13 s 26 5.820312 26 13 z m 0 0" fill="#993600"/>
                <path d="m 47.871094 112.988281 c -0.996094 4.003907 -7.800782 7.011719 -15.871094 7.011719 c -8.0625 0 -14.863281 -3 -15.871094 -7 c -0.082031 0.332031 -0.128906 0.664062 -0.128906 1 c 0 4.417969 7.164062 8 16 8 s 16 -3.582031 16 -8 c 0 -0.339844 -0.042969 -0.675781 -0.128906 -1.011719 z m 0 0" fill="#993600" fill-opacity="0.501961"/>
                <path d="m 52 113 c 0 4.96875 -8.953125 9 -20 9 s -20 -4.03125 -20 -9 s 8.953125 -9 20 -9 s 20 4.03125 20 9 z m 0 0" fill="#c64600"/>
                <path d="m 96 2 c -14.359375 0 -26 5.820312 -26 13 v 8 h 5.523438 c 4.921874 3.152344 12.476562 4.996094 20.476562 5 c 8 -0.003906 15.554688 -1.847656 20.476562 -5 h 5.523438 v -8 c 0 -7.179688 -11.640625 -13 -26 -13 z m 0 0" fill="url(#m)"/>
                <path d="m 122 23 c 0 7.179688 -11.640625 13 -26 13 s -26 -5.820312 -26 -13 s 11.640625 -13 26 -13 s 26 5.820312 26 13 z m 0 0" fill="#134786"/>
                <path d="m 96 12 c -13.253906 0 -24 5.371094 -24 12 c 0 7.683594 3.050781 15.050781 8.484375 20.484375 l 4.6875 4.6875 c 1.8125 1.8125 2.828125 4.265625 2.828125 6.828125 s -1.015625 5.015625 -2.828125 6.828125 l -4.6875 4.6875 c -5.433594 5.433594 -8.484375 12.800781 -8.484375 20.484375 v 26 h 48 v -26 c 0 -7.683594 -3.050781 -15.050781 -8.484375 -20.484375 l -4.6875 -4.6875 c -1.8125 -1.8125 -2.828125 -4.265625 -2.828125 -6.828125 s 1.015625 -5.015625 2.828125 -6.828125 l 4.6875 -4.6875 c 5.433594 -5.433594 8.484375 -12.800781 8.484375 -20.484375 c 0 -6.628906 -10.746094 -12 -24 -12 z m 0 0" fill="#c0bfbc"/>
                <g clip-path="url(#w)">
                    <g clip-path="url(#x)">
                        <path d="m 96 38 c -13.253906 0 -24 12 -24 12 v 2 h 10 v -4 h 2 c 6.363281 6.363281 9.957031 14.984375 10 23.984375 c -2.039062 0.292969 -4.023438 1.03125 -5.808594 2.222656 l -16.191406 10.792969 v 29 h 48 v -29 l -16.191406 -10.792969 c -1.78125 -1.1875 -3.765625 -1.929687 -5.800782 -2.222656 c 0.039063 -9 3.628907 -17.617187 9.992188 -23.984375 h 2 v 4 h 10 v -2 s -10.746094 -12 -24 -12 z m 8.882812 14 v 4 h 1.117188 v -4 z m 0 0" fill="#1c71d8"/>
                    </g>
                </g>
                <path d="m 88 44 c 0 0.550781 0.449219 1 1 1 s 1 -0.449219 1 -1 s -0.449219 -1 -1 -1 s -1 0.449219 -1 1 z m 0 0" fill-opacity="0.2"/>
                <path d="m 99 48 c 0 0.550781 0.449219 1 1 1 s 1 -0.449219 1 -1 s -0.449219 -1 -1 -1 s -1 0.449219 -1 1 z m 0 0" fill-opacity="0.2"/>
                <path d="m 90 53 c 0 0.550781 0.449219 1 1 1 s 1 -0.449219 1 -1 s -0.449219 -1 -1 -1 s -1 0.449219 -1 1 z m 0 0" fill-opacity="0.2"/>
                <path d="m 84 83 c 0 0.550781 0.449219 1 1 1 s 1 -0.449219 1 -1 s -0.449219 -1 -1 -1 s -1 0.449219 -1 1 z m 0 0" fill-opacity="0.2"/>
                <path d="m 110 85 c 0 0.550781 0.449219 1 1 1 s 1 -0.449219 1 -1 s -0.449219 -1 -1 -1 s -1 0.449219 -1 1 z m 0 0" fill-opacity="0.2"/>
                <path d="m 96 75 c 0 0.550781 0.449219 1 1 1 s 1 -0.449219 1 -1 s -0.449219 -1 -1 -1 s -1 0.449219 -1 1 z m 0 0" fill-opacity="0.2"/>
                <path d="m 92 85 c 0 0.550781 0.449219 1 1 1 s 1 -0.449219 1 -1 s -0.449219 -1 -1 -1 s -1 0.449219 -1 1 z m 0 0" fill-opacity="0.2"/>
                <path d="m 100 89 c 0 0.550781 0.449219 1 1 1 s 1 -0.449219 1 -1 s -0.449219 -1 -1 -1 s -1 0.449219 -1 1 z m 0 0" fill-opacity="0.2"/>
                <path d="m 76 93 c 0 0.550781 0.449219 1 1 1 s 1 -0.449219 1 -1 s -0.449219 -1 -1 -1 s -1 0.449219 -1 1 z m 0 0" fill-opacity="0.2"/>
                <path d="m 114 93 c 0 0.550781 0.449219 1 1 1 s 1 -0.449219 1 -1 s -0.449219 -1 -1 -1 s -1 0.449219 -1 1 z m 0 0" fill-opacity="0.2"/>
                <path d="m 96 12 c -13.253906 0 -24 5.371094 -24 12 c 0 7.683594 3.050781 15.050781 8.484375 20.484375 l 4.6875 4.6875 c 1.8125 1.8125 2.828125 4.265625 2.828125 6.828125 s -1.015625 5.015625 -2.828125 6.828125 l -4.6875 4.6875 c -5.433594 5.433594 -8.484375 12.800781 -8.484375 20.484375 v 26 h 48 v -26 c 0 -7.683594 -3.050781 -15.050781 -8.484375 -20.484375 l -4.6875 -4.6875 c -1.8125 -1.8125 -2.828125 -4.265625 -2.828125 -6.828125 s 1.015625 -5.015625 2.828125 -6.828125 l 4.6875 -4.6875 c 5.433594 -5.433594 8.484375 -12.800781 8.484375 -20.484375 c 0 -6.628906 -10.746094 -12 -24 -12 z m 0 0" fill="url(#p)"/>
                <path d="m 74 22.851562 c -0.125 3.816407 1.085938 7.722657 2.226562 11.242188 c 1.96875 4.796875 4.792969 8.382812 7.765626 11.695312 c 1.105468 1.234376 3.371093 2.210938 5.027343 2.210938 s 2.085938 -0.984375 0.957031 -2.195312 c -2.285156 -2.449219 -4.523437 -4.949219 -6.074218 -8.050782 c -2.410156 -4.257812 -3.800782 -9.9375 -3.839844 -14.878906 c -0.011719 -1.589844 -1.140625 -2.875 -2.734375 -2.875 h -0.078125 c -1.589844 0 -3.199219 1.265625 -3.25 2.851562 z m 0 0" fill="url(#q)"/>
                <path d="m 87.539062 62.472656 c -1.441406 1.800782 -3.246093 3.320313 -4.96875 5.042969 c -3.699218 3.714844 -6.304687 8.351563 -7.570312 13.398437 c -0.421875 1.683594 0.808594 3.085938 2.546875 3.085938 c 1.578125 0 3.03125 -1.402344 3.453125 -3.085938 c 1.265625 -5.046874 3.871094 -9.683593 7.570312 -13.398437 c 1.53125 -1.660156 3.496094 -3.265625 4.972657 -5.046875 c 1.039062 -1.246094 0.273437 -2.46875 -1.355469 -2.46875 h -0.101562 c -1.628907 0 -3.53125 1.203125 -4.546876 2.472656 z m 0 0" fill="url(#r)"/>
                <path d="m 119.71875 22.851562 c -0.480469 3.816407 -2.097656 7.722657 -3.597656 11.242188 c -2.394532 4.796875 -5.328125 8.382812 -8.339844 11.695312 c -1.125 1.234376 -3.179688 2.210938 -4.578125 2.210938 s -1.609375 -0.984375 -0.46875 -2.195312 c 2.300781 -2.449219 4.570313 -4.949219 6.355469 -8.050782 c 2.683594 -4.257812 4.726562 -9.9375 5.511718 -14.878906 c 0.253907 -1.589844 1.40625 -2.875 2.746094 -2.875 h 0.066406 c 1.34375 0 2.503907 1.265625 2.304688 2.851562 z m 0 0" fill="url(#s)"/>
                <path d="m 96 92 c -14.359375 0 -26 5.820312 -26 13 v 8 h 5.523438 c 4.921874 3.152344 12.476562 4.996094 20.476562 5 c 8 -0.003906 15.554688 -1.847656 20.476562 -5 h 5.523438 v -8 c 0 -7.179688 -11.640625 -13 -26 -13 z m 0 0" fill="url(#t)"/>
                <path d="m 122 113 c 0 7.179688 -11.640625 13 -26 13 s -26 -5.820312 -26 -13 s 11.640625 -13 26 -13 s 26 5.820312 26 13 z m 0 0" fill="#134786"/>
                <path d="m 111.871094 112.988281 c -0.996094 4.003907 -7.800782 7.011719 -15.871094 7.011719 c -8.0625 0 -14.863281 -3 -15.871094 -7 c -0.082031 0.332031 -0.128906 0.664062 -0.128906 1 c 0 4.417969 7.164062 8 16 8 s 16 -3.582031 16 -8 c 0 -0.339844 -0.042969 -0.675781 -0.128906 -1.011719 z m 0 0" fill="#134786" fill-opacity="0.501961"/>
                <path d="m 116 113 c 0 4.96875 -8.953125 9 -20 9 s -20 -4.03125 -20 -9 s 8.953125 -9 20 -9 s 20 4.03125 20 9 z m 0 0" fill="#1a5fb4"/>
            </g>
        </g>
    </mask>
    <mask id="C">
        <g filter="url(#A)">
            <rect fill-opacity="0.8" height="128" width="128"/>
        </g>
    </mask>
    <linearGradient id="D" gradientTransform="matrix(0 0.37 -0.98462 0 295.38501 -30.360001)" gradientUnits="userSpaceOnUse" x1="300" x2="428" y1="235" y2="235">
        <stop offset="0" stop-color="#f9f06b"/>
        <stop offset="1" stop-color="#f5c211"/>
    </linearGradient>
    <clipPath id="E">
        <rect height="128" width="128"/>
    </clipPath>
    <clipPath id="F">
        <rect height="128" width="128"/>
    </clipPath>
    <path d="m 32 2 c -14.359375 0 -26 5.820312 -26 13 v 8 h 5.523438 c 4.921874 3.152344 12.476562 4.996094 20.476562 5 c 8 -0.003906 15.554688 -1.847656 20.476562 -5 h 5.523438 v -8 c 0 -7.179688 -11.640625 -13 -26 -13 z m 0 0" fill="url(#b)"/>
    <path d="m 58 23 c 0 7.179688 -11.640625 13 -26 13 s -26 -5.820312 -26 -13 s 11.640625 -13 26 -13 s 26 5.820312 26 13 z m 0 0" fill="#993600"/>
    <path d="m 32 12 c -13.253906 0 -24 5.371094 -24 12 c 0 7.683594 3.050781 15.050781 8.484375 20.484375 l 4.6875 4.6875 c 1.8125 1.8125 2.828125 4.265625 2.828125 6.828125 s -1.015625 5.015625 -2.828125 6.828125 l -4.6875 4.6875 c -5.433594 5.433594 -8.484375 12.800781 -8.484375 20.484375 v 26 h 48 v -26 c 0 -7.683594 -3.050781 -15.050781 -8.484375 -20.484375 l -4.6875 -4.6875 c -1.8125 -1.8125 -2.828125 -4.265625 -2.828125 -6.828125 s 1.015625 -5.015625 2.828125 -6.828125 l 4.6875 -4.6875 c 5.433594 -5.433594 8.484375 -12.800781 8.484375 -20.484375 c 0 -6.628906 -10.746094 -12 -24 -12 z m 0 0" fill="#c0bfbc"/>
    <g clip-path="url(#c)">
        <g clip-path="url(#d)">
            <path d="m 32 20 c -13.253906 0 -24 5.371094 -24 12 v 16 h 12 c 6.402344 6.402344 10 15.085938 10 24.144531 v 8.839844 c -2.035156 0.292969 -4.023438 1.03125 -5.808594 2.222656 l -16.191406 10.792969 v 20 h 48 v -20 l -16.191406 -10.792969 c -1.785156 -1.191406 -3.773438 -1.929687 -5.808594 -2.222656 v -8.839844 c 0 -9.058593 3.597656 -17.742187 10 -24.144531 h 12 v -16 c 0 -6.628906 -10.746094 -12 -24 -12 z m 0 0" fill="#ff7800"/>
        </g>
    </g>
    <g fill-opacity="0.2">
        <path d="m 18 31 c 0 0.550781 -0.449219 1 -1 1 s -1 -0.449219 -1 -1 s 0.449219 -1 1 -1 s 1 0.449219 1 1 z m 0 0"/>
        <path d="m 26 35 c 0 0.550781 -0.449219 1 -1 1 s -1 -0.449219 -1 -1 s 0.449219 -1 1 -1 s 1 0.449219 1 1 z m 0 0"/>
        <path d="m 37 31 c 0 0.550781 -0.449219 1 -1 1 s -1 -0.449219 -1 -1 s 0.449219 -1 1 -1 s 1 0.449219 1 1 z m 0 0"/>
        <path d="m 28 26 c 0 0.550781 -0.449219 1 -1 1 s -1 -0.449219 -1 -1 s 0.449219 -1 1 -1 s 1 0.449219 1 1 z m 0 0"/>
        <path d="m 40 41 c 0 0.550781 -0.449219 1 -1 1 s -1 -0.449219 -1 -1 s 0.449219 -1 1 -1 s 1 0.449219 1 1 z m 0 0"/>
        <path d="m 47 31 c 0 0.550781 -0.449219 1 -1 1 s -1 -0.449219 -1 -1 s 0.449219 -1 1 -1 s 1 0.449219 1 1 z m 0 0"/>
        <path d="m 42 25 c 0 0.550781 -0.449219 1 -1 1 s -1 -0.449219 -1 -1 s 0.449219 -1 1 -1 s 1 0.449219 1 1 z m 0 0"/>
        <path d="m 29 48 c 0 0.550781 -0.449219 1 -1 1 s -1 -0.449219 -1 -1 s 0.449219 -1 1 -1 s 1 0.449219 1 1 z m 0 0"/>
        <path d="m 38 53 c 0 0.550781 -0.449219 1 -1 1 s -1 -0.449219 -1 -1 s 0.449219 -1 1 -1 s 1 0.449219 1 1 z m 0 0"/>
        <path d="m 29 84 c 0 0.550781 -0.449219 1 -1 1 s -1 -0.449219 -1 -1 s 0.449219 -1 1 -1 s 1 0.449219 1 1 z m 0 0"/>
        <path d="m 40 90 c 0 0.550781 -0.449219 1 -1 1 s -1 -0.449219 -1 -1 s 0.449219 -1 1 -1 s 1 0.449219 1 1 z m 0 0"/>
        <path d="m 26 89 c 0 0.550781 -0.449219 1 -1 1 s -1 -0.449219 -1 -1 s 0.449219 -1 1 -1 s 1 0.449219 1 1 z m 0 0"/>
        <path d="m 52 93 c 0 0.550781 -0.449219 1 -1 1 s -1 -0.449219 -1 -1 s 0.449219 -1 1 -1 s 1 0.449219 1 1 z m 0 0"/>
        <path d="m 14 93 c 0 0.550781 -0.449219 1 -1 1 s -1 -0.449219 -1 -1 s 0.449219 -1 1 -1 s 1 0.449219 1 1 z m 0 0"/>
    </g>
    <path d="m 32 12 c -13.253906 0 -24 5.371094 -24 12 c 0 7.683594 3.050781 15.050781 8.484375 20.484375 l 4.6875 4.6875 c 1.8125 1.8125 2.828125 4.265625 2.828125 6.828125 s -1.015625 5.015625 -2.828125 6.828125 l -4.6875 4.6875 c -5.433594 5.433594 -8.484375 12.800781 -8.484375 20.484375 v 26 h 48 v -26 c 0 -7.683594 -3.050781 -15.050781 -8.484375 -20.484375 l -4.6875 -4.6875 c -1.8125 -1.8125 -2.828125 -4.265625 -2.828125 -6.828125 s 1.015625 -5.015625 2.828125 -6.828125 l 4.6875 -4.6875 c 5.433594 -5.433594 8.484375 -12.800781 8.484375 -20.484375 c 0 -6.628906 -10.746094 -12 -24 -12 z m 0 0" fill="url(#e)"/>
    <path d="m 10 22.851562 c -0.125 3.816407 1.085938 7.722657 2.226562 11.242188 c 1.96875 4.796875 4.792969 8.382812 7.765626 11.695312 c 1.105468 1.234376 3.371093 2.210938 5.027343 2.210938 s 2.085938 -0.984375 0.957031 -2.195312 c -2.285156 -2.449219 -4.523437 -4.949219 -6.074218 -8.050782 c -2.410156 -4.257812 -3.800782 -9.9375 -3.839844 -14.878906 c -0.011719 -1.589844 -1.140625 -2.875 -2.734375 -2.875 h -0.078125 c -1.589844 0 -3.199219 1.265625 -3.25 2.851562 z m 0 0" fill="url(#f)"/>
    <path d="m 23.539062 62.472656 c -1.441406 1.800782 -3.246093 3.320313 -4.96875 5.042969 c -3.699218 3.714844 -6.304687 8.351563 -7.570312 13.398437 c -0.421875 1.683594 0.808594 3.085938 2.546875 3.085938 c 1.578125 0 3.03125 -1.402344 3.453125 -3.085938 c 1.265625 -5.046874 3.871094 -9.683593 7.570312 -13.398437 c 1.53125 -1.660156 3.496094 -3.265625 4.972657 -5.046875 c 1.039062 -1.246094 0.273437 -2.46875 -1.355469 -2.46875 h -0.101562 c -1.628907 0 -3.53125 1.203125 -4.546876 2.472656 z m 0 0" fill="url(#h)"/>
    <path d="m 55.71875 22.851562 c -0.480469 3.816407 -2.097656 7.722657 -3.597656 11.242188 c -2.394532 4.796875 -5.328125 8.382812 -8.339844 11.695312 c -1.125 1.234376 -3.179688 2.210938 -4.578125 2.210938 s -1.609375 -0.984375 -0.46875 -2.195312 c 2.300781 -2.449219 4.570313 -4.949219 6.355469 -8.050782 c 2.683594 -4.257812 4.726562 -9.9375 5.511718 -14.878906 c 0.253907 -1.589844 1.40625 -2.875 2.746094 -2.875 h 0.066406 c 1.34375 0 2.503907 1.265625 2.304688 2.851562 z m 0 0" fill="url(#j)"/>
    <path d="m 32 92 c -14.359375 0 -26 5.820312 -26 13 v 8 h 5.523438 c 4.921874 3.152344 12.476562 4.996094 20.476562 5 c 8 -0.003906 15.554688 -1.847656 20.476562 -5 h 5.523438 v -8 c 0 -7.179688 -11.640625 -13 -26 -13 z m 0 0" fill="url(#k)"/>
    <path d="m 58 113 c 0 7.179688 -11.640625 13 -26 13 s -26 -5.820312 -26 -13 s 11.640625 -13 26 -13 s 26 5.820312 26 13 z m 0 0" fill="#993600"/>
    <path d="m 47.871094 112.988281 c -0.996094 4.003907 -7.800782 7.011719 -15.871094 7.011719 c -8.0625 0 -14.863281 -3 -15.871094 -7 c -0.082031 0.332031 -0.128906 0.664062 -0.128906 1 c 0 4.417969 7.164062 8 16 8 s 16 -3.582031 16 -8 c 0 -0.339844 -0.042969 -0.675781 -0.128906 -1.011719 z m 0 0" fill="#993600" fill-opacity="0.501961"/>
    <path d="m 52 113 c 0 4.96875 -8.953125 9 -20 9 s -20 -4.03125 -20 -9 s 8.953125 -9 20 -9 s 20 4.03125 20 9 z m 0 0" fill="#c64600"/>
    <path d="m 96 2 c -14.359375 0 -26 5.820312 -26 13 v 8 h 5.523438 c 4.921874 3.152344 12.476562 4.996094 20.476562 5 c 8 -0.003906 15.554688 -1.847656 20.476562 -5 h 5.523438 v -8 c 0 -7.179688 -11.640625 -13 -26 -13 z m 0 0" fill="url(#m)"/>
    <path d="m 122 23 c 0 7.179688 -11.640625 13 -26 13 s -26 -5.820312 -26 -13 s 11.640625 -13 26 -13 s 26 5.820312 26 13 z m 0 0" fill="#134786"/>
    <path d="m 96 12 c -13.253906 0 -24 5.371094 -24 12 c 0 7.683594 3.050781 15.050781 8.484375 20.484375 l 4.6875 4.6875 c 1.8125 1.8125 2.828125 4.265625 2.828125 6.828125 s -1.015625 5.015625 -2.828125 6.828125 l -4.6875 4.6875 c -5.433594 5.433594 -8.484375 12.800781 -8.484375 20.484375 v 26 h 48 v -26 c 0 -7.683594 -3.050781 -15.050781 -8.484375 -20.484375 l -4.6875 -4.6875 c -1.8125 -1.8125 -2.828125 -4.265625 -2.828125 -6.828125 s 1.015625 -5.015625 2.828125 -6.828125 l 4.6875 -4.6875 c 5.433594 -5.433594 8.484375 -12.800781 8.484375 -20.484375 c 0 -6.628906 -10.746094 -12 -24 -12 z m 0 0" fill="#c0bfbc"/>
    <g clip-path="url(#n)">
        <g clip-path="url(#o)">
            <path d="m 96 38 c -13.253906 0 -24 12 -24 12 v 2 h 10 v -4 h 2 c 6.363281 6.363281 9.957031 14.984375 10 23.984375 c -2.039062 0.292969 -4.023438 1.03125 -5.808594 2.222656 l -16.191406 10.792969 v 29 h 48 v -29 l -16.191406 -10.792969 c -1.78125 -1.1875 -3.765625 -1.929687 -5.800782 -2.222656 c 0.039063 -9 3.628907 -17.617187 9.992188 -23.984375 h 2 v 4 h 10 v -2 s -10.746094 -12 -24 -12 z m 8.882812 14 v 4 h 1.117188 v -4 z m 0 0" fill="#1c71d8"/>
        </g>
    </g>
    <path d="m 88 44 c 0 0.550781 0.449219 1 1 1 s 1 -0.449219 1 -1 s -0.449219 -1 -1 -1 s -1 0.449219 -1 1 z m 0 0" fill-opacity="0.2"/>
    <path d="m 99 48 c 0 0.550781 0.449219 1 1 1 s 1 -0.449219 1 -1 s -0.449219 -1 -1 -1 s -1 0.449219 -1 1 z m 0 0" fill-opacity="0.2"/>
    <path d="m 90 53 c 0 0.550781 0.449219 1 1 1 s 1 -0.449219 1 -1 s -0.449219 -1 -1 -1 s -1 0.449219 -1 1 z m 0 0" fill-opacity="0.2"/>
    <path d="m 84 83 c 0 0.550781 0.449219 1 1 1 s 1 -0.449219 1 -1 s -0.449219 -1 -1 -1 s -1 0.449219 -1 1 z m 0 0" fill-opacity="0.2"/>
    <path d="m 110 85 c 0 0.550781 0.449219 1 1 1 s 1 -0.449219 1 -1 s -0.449219 -1 -1 -1 s -1 0.449219 -1 1 z m 0 0" fill-opacity="0.2"/>
    <path d="m 96 75 c 0 0.550781 0.449219 1 1 1 s 1 -0.449219 1 -1 s -0.449219 -1 -1 -1 s -1 0.449219 -1 1 z m 0 0" fill-opacity="0.2"/>
    <path d="m 92 85 c 0 0.550781 0.449219 1 1 1 s 1 -0.449219 1 -1 s -0.449219 -1 -1 -1 s -1 0.449219 -1 1 z m 0 0" fill-opacity="0.2"/>
    <path d="m 100 89 c 0 0.550781 0.449219 1 1 1 s 1 -0.449219 1 -1 s -0.449219 -1 -1 -1 s -1 0.449219 -1 1 z m 0 0" fill-opacity="0.2"/>
    <path d="m 76 93 c 0 0.550781 0.449219 1 1 1 s 1 -0.449219 1 -1 s -0.449219 -1 -1 -1 s -1 0.449219 -1 1 z m 0 0" fill-opacity="0.2"/>
    <path d="m 114 93 c 0 0.550781 0.449219 1 1 1 s 1 -0.449219 1 -1 s -0.449219 -1 -1 -1 s -1 0.449219 -1 1 z m 0 0" fill-opacity="0.2"/>
    <path d="m 96 12 c -13.253906 0 -24 5.371094 -24 12 c 0 7.683594 3.050781 15.050781 8.484375 20.484375 l 4.6875 4.6875 c 1.8125 1.8125 2.828125 4.265625 2.828125 6.828125 s -1.015625 5.015625 -2.828125 6.828125 l -4.6875 4.6875 c -5.433594 5.433594 -8.484375 12.800781 -8.484375 20.484375 v 26 h 48 v -26 c 0 -7.683594 -3.050781 -15.050781 -8.484375 -20.484375 l -4.6875 -4.6875 c -1.8125 -1.8125 -2.828125 -4.265625 -2.828125 -6.828125 s 1.015625 -5.015625 2.828125 -6.828125 l 4.6875 -4.6875 c 5.433594 -5.433594 8.484375 -12.800781 8.484375 -20.484375 c 0 -6.628906 -10.746094 -12 -24 -12 z m 0 0" fill="url(#p)"/>
    <path d="m 74 22.851562 c -0.125 3.816407 1.085938 7.722657 2.226562 11.242188 c 1.96875 4.796875 4.792969 8.382812 7.765626 11.695312 c 1.105468 1.234376 3.371093 2.210938 5.027343 2.210938 s 2.085938 -0.984375 0.957031 -2.195312 c -2.285156 -2.449219 -4.523437 -4.949219 -6.074218 -8.050782 c -2.410156 -4.257812 -3.800782 -9.9375 -3.839844 -14.878906 c -0.011719 -1.589844 -1.140625 -2.875 -2.734375 -2.875 h -0.078125 c -1.589844 0 -3.199219 1.265625 -3.25 2.851562 z m 0 0" fill="url(#q)"/>
    <path d="m 87.539062 62.472656 c -1.441406 1.800782 -3.246093 3.320313 -4.96875 5.042969 c -3.699218 3.714844 -6.304687 8.351563 -7.570312 13.398437 c -0.421875 1.683594 0.808594 3.085938 2.546875 3.085938 c 1.578125 0 3.03125 -1.402344 3.453125 -3.085938 c 1.265625 -5.046874 3.871094 -9.683593 7.570312 -13.398437 c 1.53125 -1.660156 3.496094 -3.265625 4.972657 -5.046875 c 1.039062 -1.246094 0.273437 -2.46875 -1.355469 -2.46875 h -0.101562 c -1.628907 0 -3.53125 1.203125 -4.546876 2.472656 z m 0 0" fill="url(#r)"/>
    <path d="m 119.71875 22.851562 c -0.480469 3.816407 -2.097656 7.722657 -3.597656 11.242188 c -2.394532 4.796875 -5.328125 8.382812 -8.339844 11.695312 c -1.125 1.234376 -3.179688 2.210938 -4.578125 2.210938 s -1.609375 -0.984375 -0.46875 -2.195312 c 2.300781 -2.449219 4.570313 -4.949219 6.355469 -8.050782 c 2.683594 -4.257812 4.726562 -9.9375 5.511718 -14.878906 c 0.253907 -1.589844 1.40625 -2.875 2.746094 -2.875 h 0.066406 c 1.34375 0 2.503907 1.265625 2.304688 2.851562 z m 0 0" fill="url(#s)"/>
    <path d="m 96 92 c -14.359375 0 -26 5.820312 -26 13 v 8 h 5.523438 c 4.921874 3.152344 12.476562 4.996094 20.476562 5 c 8 -0.003906 15.554688 -1.847656 20.476562 -5 h 5.523438 v -8 c 0 -7.179688 -11.640625 -13 -26 -13 z m 0 0" fill="url(#t)"/>
    <path d="m 122 113 c 0 7.179688 -11.640625 13 -26 13 s -26 -5.820312 -26 -13 s 11.640625 -13 26 -13 s 26 5.820312 26 13 z m 0 0" fill="#134786"/>
    <path d="m 111.871094 112.988281 c -0.996094 4.003907 -7.800782 7.011719 -15.871094 7.011719 c -8.0625 0 -14.863281 -3 -15.871094 -7 c -0.082031 0.332031 -0.128906 0.664062 -0.128906 1 c 0 4.417969 7.164062 8 16 8 s 16 -3.582031 16 -8 c 0 -0.339844 -0.042969 -0.675781 -0.128906 -1.011719 z m 0 0" fill="#134786" fill-opacity="0.501961"/>
    <path d="m 116 113 c 0 4.96875 -8.953125 9 -20 9 s -20 -4.03125 -20 -9 s 8.953125 -9 20 -9 s 20 4.03125 20 9 z m 0 0" fill="#1a5fb4"/>
    <g clip-path="url(#F)" mask="url(#B)">
        <g clip-path="url(#E)" mask="url(#C)">
            <path d="m 128 80.640625 v 47.359375 h -128 v -47.359375 z m 0 0" fill="url(#D)"/>
            <path d="m 13.308594 80.640625 l 47.355468 47.359375 h 21.214844 l -47.359375 -47.359375 z m 42.421875 0 l 47.363281 47.359375 h 21.214844 l -47.363282 -47.359375 z m 42.429687 0 l 29.839844 29.839844 v -21.210938 l -8.628906 -8.628906 z m -98.160156 7.90625 v 21.214844 l 18.238281 18.238281 h 21.214844 z m 0 0"/>
        </g>
    </g>
</svg>
