<?xml version="1.0" encoding="UTF-8"?>
<svg height="128px" viewBox="0 0 128 128" width="128px" xmlns="http://www.w3.org/2000/svg" xmlns:xlink="http://www.w3.org/1999/xlink">
    <defs>
        <filter id="a" height="100%" width="100%" x="0%" y="0%">
            <feColorMatrix in="SourceGraphic" type="matrix" values="0 0 0 0 1 0 0 0 0 1 0 0 0 0 1 0 0 0 1 0"/>
        </filter>
        <mask id="b">
            <g filter="url(#a)">
                <rect fill-opacity="0.2" height="128" width="128"/>
            </g>
        </mask>
        <linearGradient id="c" gradientTransform="matrix(1.992299 0.208025 -0.208025 1.992299 -3081.410156 -1735.869507)" gradientUnits="userSpaceOnUse" x1="1660.857056" x2="1662.990112" y1="806.29718" y2="812.882446">
            <stop offset="0" stop-color="#3d3846"/>
            <stop offset="1" stop-color="#241f31"/>
        </linearGradient>
        <mask id="d">
            <g filter="url(#a)">
                <rect fill-opacity="0.1" height="128" width="128"/>
            </g>
        </mask>
        <mask id="e">
            <g filter="url(#a)">
                <rect fill-opacity="0.2" height="128" width="128"/>
            </g>
        </mask>
        <clipPath id="f">
            <rect height="152" width="192"/>
        </clipPath>
        <g id="g" clip-path="url(#f)">
            <path d="m 66.648438 53.6875 c -0.210938 -0.023438 -0.421876 -0.011719 -0.625 0.03125 c -1.082032 0.230469 -1.773438 1.292969 -1.542969 2.375 l 5.5625 26.210938 l -28.765625 23.089843 c -0.433594 0.347657 -0.503906 0.976563 -0.15625 1.410157 c 0.347656 0.429687 0.976562 0.5 1.410156 0.152343 l 28.78125 -23.101562 c 0.359375 0.144531 0.75 0.179687 1.128906 0.105469 c 0.519532 -0.109376 0.976563 -0.421876 1.265625 -0.871094 c 0.289063 -0.445313 0.390625 -0.988282 0.28125 -1.507813 l -5.589843 -26.320312 c -0.183594 -0.847657 -0.886719 -1.484375 -1.75 -1.574219 z m 0 0" fill-rule="evenodd"/>
        </g>
        <mask id="h">
            <g filter="url(#a)">
                <rect fill-opacity="0.1" height="128" width="128"/>
            </g>
        </mask>
        <clipPath id="i">
            <rect height="152" width="192"/>
        </clipPath>
        <g id="j" clip-path="url(#i)">
            <path d="m 72 26.003906 c -29.824219 0 -54 24.175782 -54 54 c 0.011719 0.390625 0.023438 0.78125 0.042969 1.167969 c 0.453125 -29.480469 24.472656 -53.148437 53.957031 -53.167969 c 29.355469 0.015625 53.320312 23.476563 53.957031 52.828125 c 0.019531 -0.277343 0.03125 -0.554687 0.042969 -0.828125 c 0 -29.824218 -24.175781 -54 -54 -54 z m 0 0"/>
        </g>
        <clipPath id="k">
            <rect height="128" width="128"/>
        </clipPath>
        <clipPath id="l">
            <rect height="128" width="128"/>
        </clipPath>
        <mask id="m">
            <g clip-path="url(#l)" filter="url(#a)">
                <g clip-path="url(#k)">
                    <path d="m 124 66.003906 c 0 33.136719 -26.863281 60 -60 60 s -60 -26.863281 -60 -60 c 0 -33.136718 26.863281 -60 60 -60 s 60 26.863282 60 60 z m 0 0" fill="#33d17a"/>
                    <path d="m 64 8.003906 c 30.929688 0 56 25.070313 56 56 v 2 c 0 30.925782 -25.070312 56 -56 56 c -30.925781 0 -56 -25.074218 -56 -56 v -2 c 0 -30.929687 25.074219 -56 56 -56 z m 0 0" fill="#d5d3cf"/>
                    <path d="m 124 64.003906 c 0 33.136719 -26.863281 60 -60 60 s -60 -26.863281 -60 -60 c 0 -33.136718 26.863281 -60 60 -60 s 60 26.863282 60 60 z m 0 0" fill="#57e389"/>
                    <path d="m 118 64.003906 c 0 29.820313 -24.175781 54 -54 54 s -54 -24.179687 -54 -54 c 0 -29.824218 24.175781 -54 54 -54 s 54 24.175782 54 54 z m 0 0" fill="#f6f5f4"/>
                    <use mask="url(#e)" transform="matrix(1 0 0 1 -8 -16)" xlink:href="#g"/>
                    <path d="m 64.027344 236 l -5.589844 -26.320312" fill="#c0bfbc" fill-rule="evenodd" stroke="url(#c)" stroke-linecap="round" stroke-width="4.00626" transform="matrix(1 0 0 1 0 -172)"/>
                    <path d="m 64.027344 236 l -30.125 24.175781" fill="none" stroke="#2ec27e" stroke-linecap="round" stroke-width="2.00313" transform="matrix(1 0 0 1 0 -172)"/>
                    <path d="m 69.480469 61.558594 c 1.347656 3.027344 -0.007813 6.574218 -3.035157 7.921875 c -3.027343 1.351562 -6.574218 -0.007813 -7.925781 -3.035157 c -1.347656 -3.023437 0.011719 -6.574218 3.035157 -7.921874 c 3.027343 -1.351563 6.574218 0.007812 7.925781 3.035156 z m 0 0" fill="#9a9996"/>
                    <path d="m 66.03125 64.003906 c 0 1.105469 -0.894531 2 -2 2 c -1.109375 0 -2.003906 -0.894531 -2.003906 -2 c 0 -1.109375 0.894531 -2.003906 2.003906 -2.003906 c 1.105469 0 2 0.894531 2 2.003906 z m 0 0" fill="#131c1a"/>
                    <path d="m 66.03125 64.003906 c 0 1.101563 -0.898438 2 -2 2 c -1.105469 0 -2 -0.898437 -2 -2 c 0 -1.105468 0.894531 -2 2 -2 c 1.101562 0 2 0.894532 2 2 z m 0 0" fill="#131c1a"/>
                    <use mask="url(#h)" transform="matrix(1 0 0 1 -8 -16)" xlink:href="#j"/>
                </g>
            </g>
        </mask>
        <mask id="n">
            <g filter="url(#a)">
                <rect fill-opacity="0.8" height="128" width="128"/>
            </g>
        </mask>
        <linearGradient id="o" gradientTransform="matrix(0 0.37 -0.98462 0 295.38501 -30.360001)" gradientUnits="userSpaceOnUse" x1="300" x2="428" y1="235" y2="235">
            <stop offset="0" stop-color="#f9f06b"/>
            <stop offset="1" stop-color="#f5c211"/>
        </linearGradient>
        <clipPath id="p">
            <rect height="128" width="128"/>
        </clipPath>
        <clipPath id="q">
            <rect height="128" width="128"/>
        </clipPath>
    </defs>
    <path d="m 124 66.003906 c 0 33.136719 -26.863281 60 -60 60 s -60 -26.863281 -60 -60 c 0 -33.136718 26.863281 -60 60 -60 s 60 26.863282 60 60 z m 0 0" fill="#33d17a"/>
    <path d="m 64 8.003906 c 30.929688 0 56 25.070313 56 56 v 2 c 0 30.925782 -25.070312 56 -56 56 c -30.925781 0 -56 -25.074218 -56 -56 v -2 c 0 -30.929687 25.074219 -56 56 -56 z m 0 0" fill="#d5d3cf"/>
    <path d="m 124 64.003906 c 0 33.136719 -26.863281 60 -60 60 s -60 -26.863281 -60 -60 c 0 -33.136718 26.863281 -60 60 -60 s 60 26.863282 60 60 z m 0 0" fill="#57e389"/>
    <path d="m 118 64.003906 c 0 29.820313 -24.175781 54 -54 54 s -54 -24.179687 -54 -54 c 0 -29.824218 24.175781 -54 54 -54 s 54 24.175782 54 54 z m 0 0" fill="#f6f5f4"/>
    <use mask="url(#b)" transform="matrix(1 0 0 1 -8 -16)" xlink:href="#g"/>
    <path d="m 64.027344 236 l -5.589844 -26.320312" fill="#c0bfbc" fill-rule="evenodd" stroke="url(#c)" stroke-linecap="round" stroke-width="4.00626" transform="matrix(1 0 0 1 0 -172)"/>
    <path d="m 64.027344 64 l -30.125 24.175781" fill="none" stroke="#2ec27e" stroke-linecap="round" stroke-width="2.00313"/>
    <path d="m 69.480469 61.558594 c 1.347656 3.027344 -0.007813 6.574218 -3.035157 7.921875 c -3.027343 1.351562 -6.574218 -0.007813 -7.925781 -3.035157 c -1.347656 -3.023437 0.011719 -6.574218 3.035157 -7.921874 c 3.027343 -1.351563 6.574218 0.007812 7.925781 3.035156 z m 0 0" fill="#9a9996"/>
    <path d="m 66.03125 64.003906 c 0 1.105469 -0.894531 2 -2 2 c -1.109375 0 -2.003906 -0.894531 -2.003906 -2 c 0 -1.109375 0.894531 -2.003906 2.003906 -2.003906 c 1.105469 0 2 0.894531 2 2.003906 z m 0 0" fill="#131c1a"/>
    <path d="m 66.03125 64.003906 c 0 1.101563 -0.898438 2 -2 2 c -1.105469 0 -2 -0.898437 -2 -2 c 0 -1.105468 0.894531 -2 2 -2 c 1.101562 0 2 0.894532 2 2 z m 0 0" fill="#131c1a"/>
    <use mask="url(#d)" transform="matrix(1 0 0 1 -8 -16)" xlink:href="#j"/>
    <g clip-path="url(#q)" mask="url(#m)">
        <g clip-path="url(#p)" mask="url(#n)">
            <path d="m 128 80.640625 v 47.359375 h -128 v -47.359375 z m 0 0" fill="url(#o)"/>
            <path d="m 13.308594 80.640625 l 47.355468 47.359375 h 21.214844 l -47.359375 -47.359375 z m 42.421875 0 l 47.363281 47.359375 h 21.214844 l -47.363282 -47.359375 z m 42.429687 0 l 29.839844 29.839844 v -21.210938 l -8.628906 -8.628906 z m -98.160156 7.90625 v 21.214844 l 18.238281 18.238281 h 21.214844 z m 0 0"/>
        </g>
    </g>
</svg>
